<svg xmlns="http://www.w3.org/2000/svg" xmlns:xlink="http://www.w3.org/1999/xlink" width="256" zoomAndPan="magnify" viewBox="0 0 192 191.999996" height="256" preserveAspectRatio="xMidYMid meet" version="1.0"><defs><clipPath id="54f1348228"><path d="M 7 0 L 186 0 L 186 186 L 7 186 Z M 7 0 " clip-rule="nonzero"/></clipPath><clipPath id="c13a9980b9"><path d="M 178.695312 61.371094 C 174.617188 51.601562 166.664062 41.691406 160.183594 38.261719 C 159.652344 37.957031 159.082031 37.804688 158.46875 37.804688 C 157.855469 37.804688 157.285156 37.957031 156.753906 38.261719 C 156.242188 38.605469 155.867188 39.058594 155.625 39.625 C 155.382812 40.191406 155.3125 40.777344 155.417969 41.382812 C 152.707031 37.953125 149.863281 34.835938 146.984375 31.578125 C 140.828125 24.96875 135.261719 17.894531 130.285156 10.355469 L 128.296875 7.164062 L 127.472656 5.589844 C 127.042969 4.753906 126.699219 3.886719 126.445312 2.984375 C 126.378906 2.648438 126.265625 2.328125 126.105469 2.027344 C 125.945312 1.726562 125.746094 1.457031 125.503906 1.214844 C 125.265625 0.972656 124.992188 0.773438 124.691406 0.613281 C 124.390625 0.453125 124.070312 0.339844 123.738281 0.273438 C 123.382812 0.207031 123.027344 0.207031 122.675781 0.273438 C 122.210938 0.296875 121.777344 0.425781 121.371094 0.652344 C 119.300781 1.925781 117.308594 3.3125 115.390625 4.804688 C 113.472656 6.300781 111.640625 7.894531 109.898438 9.59375 C 108.15625 11.289062 106.515625 13.074219 104.96875 14.953125 C 103.425781 16.828125 101.988281 18.785156 100.65625 20.820312 C 99.328125 22.859375 98.113281 24.960938 97.015625 27.128906 C 95.917969 29.300781 94.941406 31.523438 94.089844 33.800781 C 93.238281 36.074219 92.511719 38.394531 91.914062 40.75 C 91.316406 43.105469 90.847656 45.488281 90.515625 47.898438 C 87.792969 48.320312 85.164062 49.074219 82.628906 50.160156 C 82.277344 50.28125 81.957031 50.460938 81.667969 50.695312 C 81.378906 50.933594 81.140625 51.210938 80.953125 51.53125 C 80.765625 51.855469 80.636719 52.199219 80.574219 52.566406 C 80.507812 52.929688 80.507812 53.296875 80.574219 53.664062 C 80.640625 54.03125 80.769531 54.375 80.957031 54.695312 C 81.148438 55.015625 81.386719 55.292969 81.675781 55.53125 C 81.964844 55.765625 82.285156 55.941406 82.636719 56.0625 C 82.992188 56.183594 83.351562 56.238281 83.726562 56.230469 C 84.160156 56.238281 84.570312 56.144531 84.960938 55.953125 C 87.019531 55.078125 89.15625 54.484375 91.371094 54.171875 C 93.988281 54.035156 96.605469 54.035156 99.222656 54.171875 L 101.761719 54.171875 L 104.089844 54.546875 L 104.539062 54.546875 L 106.421875 54.996094 L 107.109375 55.199219 L 108.996094 55.78125 L 109.371094 55.78125 L 111.566406 56.640625 L 112.113281 56.878906 L 114.378906 57.910156 L 116.433594 59.039062 L 118.9375 60.652344 L 120.515625 61.78125 L 120.824219 62.023438 L 123.015625 63.839844 L 123.910156 64.664062 L 122.539062 64.386719 L 122.261719 64.386719 L 121.027344 64.183594 L 114.238281 64.183594 L 112.835938 64.355469 C 112.28125 64.441406 111.785156 64.652344 111.335938 64.988281 C 110.886719 65.320312 110.542969 65.738281 110.296875 66.238281 C 110.144531 66.605469 110.0625 66.984375 110.054688 67.382812 C 110.050781 67.777344 110.117188 68.160156 110.257812 68.53125 C 110.398438 68.898438 110.601562 69.230469 110.867188 69.523438 C 111.136719 69.8125 111.449219 70.046875 111.804688 70.21875 C 112.613281 70.636719 113.402344 71.09375 114.171875 71.582031 C 114.9375 72.074219 115.683594 72.59375 116.410156 73.148438 C 117.132812 73.703125 117.832031 74.285156 118.503906 74.898438 C 119.175781 75.511719 119.824219 76.15625 120.441406 76.824219 C 121.058594 77.492188 121.648438 78.1875 122.203125 78.910156 C 122.761719 79.628906 123.289062 80.371094 123.78125 81.136719 C 124.277344 81.902344 124.738281 82.6875 125.164062 83.492188 C 125.589844 84.296875 125.980469 85.121094 126.335938 85.960938 C 126.691406 86.796875 127.011719 87.652344 127.292969 88.515625 C 127.574219 89.382812 127.820312 90.261719 128.027344 91.148438 C 128.230469 92.035156 128.398438 92.929688 128.53125 93.832031 C 128.660156 94.734375 128.75 95.640625 128.800781 96.550781 C 128.851562 97.457031 128.863281 98.367188 128.835938 99.28125 C 128.808594 100.191406 128.742188 101.097656 128.636719 102.003906 C 128.53125 102.90625 128.386719 103.808594 128.207031 104.699219 C 128.023438 105.59375 127.800781 106.476562 127.542969 107.347656 C 127.269531 108.378906 126.960938 109.40625 126.617188 110.367188 L 126.617188 110.539062 L 125.519531 113.210938 C 125.507812 113.292969 125.507812 113.371094 125.519531 113.453125 C 125.136719 114.261719 124.714844 115.050781 124.25 115.816406 C 124.261719 115.921875 124.261719 116.023438 124.25 116.125 C 123.804688 116.84375 123.324219 117.566406 122.84375 118.21875 L 122.640625 118.527344 L 120.855469 120.6875 C 120.308594 121.269531 119.761719 121.851562 119.175781 122.367188 L 118.902344 122.605469 C 118.320312 123.152344 117.703125 123.632812 117.085938 124.113281 L 116.84375 124.320312 C 116.195312 124.765625 115.578125 125.210938 114.890625 125.621094 L 114.652344 125.621094 C 114 126.035156 113.3125 126.410156 112.59375 126.789062 L 109.714844 128.230469 L 107.382812 129.085938 L 104.914062 129.839844 L 102.617188 130.320312 L 102.378906 130.320312 L 100.148438 130.664062 L 99.839844 130.664062 L 97.644531 130.867188 L 93.121094 130.867188 C 89.59375 130.738281 86.164062 130.085938 82.835938 128.914062 L 80.503906 127.953125 C 80.042969 127.777344 79.597656 127.570312 79.164062 127.335938 C 77.949219 126.757812 76.773438 126.105469 75.632812 125.386719 C 74.496094 124.664062 73.40625 123.875 72.367188 123.019531 C 71.324219 122.164062 70.339844 121.25 69.410156 120.273438 C 68.476562 119.300781 67.609375 118.273438 66.804688 117.191406 C 66 116.109375 65.261719 114.984375 64.59375 113.816406 C 63.925781 112.644531 63.332031 111.4375 62.8125 110.195312 C 62.289062 108.953125 61.84375 107.683594 61.476562 106.386719 C 61.109375 105.089844 60.824219 103.777344 60.617188 102.445312 C 61.507812 100.25 66.480469 90.480469 85.921875 90.480469 C 90.035156 90.480469 98.230469 82.59375 99.292969 78.71875 L 99.292969 77.761719 C 99.292969 75.703125 98.125 75.1875 93.566406 72.960938 C 87.804688 70.445312 82.457031 67.246094 77.519531 63.359375 L 76.59375 62.46875 L 75.429688 61.335938 L 74.433594 60.34375 C 73.800781 59.371094 73.058594 58.492188 72.207031 57.703125 C 71.453125 57.0625 70.664062 56.46875 69.839844 55.921875 C 69.160156 53.03125 68.835938 50.101562 68.867188 47.132812 C 68.894531 44.164062 69.277344 41.242188 70.011719 38.367188 C 70.140625 38.019531 70.207031 37.65625 70.203125 37.285156 C 70.203125 36.914062 70.136719 36.554688 70.003906 36.207031 C 69.871094 35.859375 69.683594 35.546875 69.433594 35.269531 C 69.1875 34.992188 68.902344 34.765625 68.570312 34.59375 C 68.128906 34.378906 67.660156 34.273438 67.164062 34.273438 C 66.671875 34.273438 66.203125 34.378906 65.761719 34.59375 C 58.875 37.851562 52.78125 42.21875 47.484375 47.691406 C 46.535156 42.578125 46.167969 37.425781 46.386719 32.230469 C 46.441406 31.941406 46.441406 31.65625 46.386719 31.371094 C 46.277344 30.863281 46.050781 30.410156 45.710938 30.011719 C 45.371094 29.617188 44.957031 29.328125 44.46875 29.144531 C 43.679688 28.800781 42.546875 28.355469 38.675781 30.996094 C 35.496094 33.242188 32.550781 35.753906 29.828125 38.539062 C 26.742188 41.621094 23.941406 44.949219 21.429688 48.515625 C 15.605469 56.714844 11.597656 65.71875 9.394531 75.53125 L 9.394531 76.148438 L 8.503906 81.738281 C 7.6875 85.765625 7.207031 89.835938 7.0625 93.941406 L 7.0625 94.386719 C 7.039062 95.785156 7.050781 97.179688 7.089844 98.578125 C 7.132812 99.972656 7.207031 101.367188 7.316406 102.757812 C 7.421875 104.152344 7.5625 105.539062 7.738281 106.925781 C 7.910156 108.3125 8.117188 109.691406 8.351562 111.070312 C 8.589844 112.445312 8.863281 113.8125 9.164062 115.175781 C 9.464844 116.542969 9.800781 117.898438 10.167969 119.246094 C 10.53125 120.59375 10.929688 121.929688 11.359375 123.257812 C 11.789062 124.589844 12.246094 125.90625 12.738281 127.214844 C 13.230469 128.519531 13.75 129.816406 14.300781 131.097656 C 14.851562 132.382812 15.433594 133.652344 16.046875 134.90625 C 16.65625 136.164062 17.296875 137.402344 17.96875 138.628906 C 18.636719 139.855469 19.335938 141.0625 20.0625 142.253906 C 20.789062 143.449219 21.542969 144.621094 22.324219 145.78125 C 23.105469 146.9375 23.914062 148.074219 24.75 149.195312 C 25.585938 150.3125 26.445312 151.414062 27.332031 152.492188 C 28.21875 153.570312 29.128906 154.628906 30.066406 155.664062 C 31.003906 156.699219 31.964844 157.710938 32.949219 158.703125 C 33.933594 159.695312 34.9375 160.660156 35.96875 161.605469 C 37 162.546875 38.050781 163.46875 39.121094 164.359375 C 40.195312 165.253906 41.289062 166.125 42.402344 166.964844 C 43.515625 167.808594 44.648438 168.625 45.800781 169.414062 C 46.953125 170.203125 48.121094 170.964844 49.308594 171.699219 C 50.496094 172.433594 51.703125 173.140625 52.921875 173.820312 C 54.144531 174.496094 55.378906 175.144531 56.632812 175.765625 C 57.882812 176.382812 59.148438 176.976562 60.425781 177.535156 C 61.707031 178.09375 62.996094 178.625 64.300781 179.125 C 65.605469 179.625 66.921875 180.09375 68.246094 180.53125 C 69.574219 180.96875 70.910156 181.375 72.253906 181.75 C 73.597656 182.125 74.953125 182.46875 76.3125 182.78125 C 77.675781 183.089844 79.042969 183.371094 80.417969 183.617188 C 81.792969 183.863281 83.171875 184.078125 84.554688 184.261719 C 85.941406 184.445312 87.328125 184.59375 88.71875 184.710938 C 90.109375 184.828125 91.503906 184.914062 92.898438 184.964844 C 94.296875 185.015625 95.691406 185.035156 97.085938 185.019531 C 98.484375 185.007812 99.878906 184.960938 101.273438 184.878906 C 102.667969 184.800781 104.058594 184.6875 105.449219 184.542969 C 106.835938 184.398438 108.222656 184.21875 109.601562 184.011719 C 110.984375 183.800781 112.359375 183.558594 113.726562 183.285156 C 115.097656 183.007812 116.457031 182.703125 117.8125 182.363281 C 119.167969 182.023438 120.515625 181.65625 121.851562 181.253906 C 123.1875 180.851562 124.515625 180.417969 125.832031 179.953125 C 127.148438 179.488281 128.457031 178.992188 129.75 178.46875 C 131.042969 177.941406 132.324219 177.386719 133.589844 176.800781 C 134.859375 176.214844 136.113281 175.601562 137.351562 174.953125 C 138.589844 174.308594 139.8125 173.636719 141.019531 172.933594 C 142.226562 172.230469 143.417969 171.503906 144.589844 170.742188 C 145.761719 169.984375 146.914062 169.199219 148.050781 168.386719 C 149.1875 167.574219 150.304688 166.738281 151.398438 165.871094 C 152.496094 165.007812 153.570312 164.117188 154.625 163.203125 C 155.679688 162.285156 156.714844 161.347656 157.722656 160.382812 C 158.734375 159.417969 159.722656 158.433594 160.6875 157.421875 C 161.648438 156.410156 162.589844 155.378906 163.503906 154.324219 C 164.421875 153.269531 165.3125 152.195312 166.175781 151.097656 C 167.042969 150 167.878906 148.886719 168.691406 147.75 C 169.503906 146.613281 170.289062 145.460938 171.046875 144.289062 C 171.808594 143.113281 172.539062 141.925781 173.238281 140.71875 C 173.941406 139.511719 174.617188 138.289062 175.261719 137.050781 C 175.90625 135.8125 176.519531 134.558594 177.105469 133.289062 C 177.691406 132.023438 178.25 130.742188 178.773438 129.449219 C 179.300781 128.15625 179.796875 126.851562 180.261719 125.53125 C 180.726562 124.214844 181.15625 122.886719 181.558594 121.550781 C 181.960938 120.214844 182.332031 118.867188 182.671875 117.511719 C 183.011719 116.160156 183.316406 114.796875 183.59375 113.425781 C 183.867188 112.058594 184.109375 110.683594 184.320312 109.304688 C 184.320312 108.480469 184.527344 107.65625 184.59375 106.800781 L 184.59375 105.941406 C 185.511719 98.382812 185.46875 90.832031 184.472656 83.285156 C 183.472656 75.734375 181.546875 68.429688 178.695312 61.371094 Z M 114.207031 51.085938 L 113.828125 51.085938 C 113.109375 50.78125 112.378906 50.507812 111.632812 50.261719 L 110.84375 49.988281 C 110.183594 49.746094 109.507812 49.539062 108.824219 49.371094 L 108.171875 49.371094 C 107.300781 49.128906 106.417969 48.921875 105.53125 48.753906 L 105.015625 48.753906 L 102.855469 48.101562 L 102.035156 48.101562 L 99.804688 47.863281 L 96.753906 47.863281 C 97.726562 41.925781 99.53125 36.25 102.160156 30.839844 C 104.792969 25.429688 108.144531 20.511719 112.21875 16.078125 C 112.21875 16.355469 112.046875 16.628906 111.976562 16.902344 C 111.875 17.148438 111.796875 17.398438 111.738281 17.65625 C 111.601562 18.050781 111.488281 18.453125 111.394531 18.855469 L 111.1875 19.578125 C 111.1875 20.023438 110.949219 20.503906 110.84375 20.949219 C 110.742188 21.394531 110.84375 21.359375 110.84375 21.566406 L 110.433594 23.589844 L 110.230469 24.855469 L 110.230469 29.417969 C 110.210938 29.542969 110.210938 29.667969 110.230469 29.792969 L 110.230469 34.457031 C 110.246094 34.570312 110.246094 34.6875 110.230469 34.800781 L 110.230469 38.433594 C 110.230469 38.570312 110.230469 39.496094 110.503906 40.011719 C 110.503906 40.558594 110.742188 41.109375 110.878906 41.691406 L 110.878906 42.136719 C 110.878906 42.582031 111.121094 43.027344 111.222656 43.472656 L 111.222656 43.851562 C 111.222656 44.433594 111.566406 44.984375 111.769531 45.566406 L 111.769531 45.910156 L 112.285156 47.3125 L 112.492188 47.792969 L 113.144531 49.40625 C 113.382812 49.988281 113.691406 50.539062 113.964844 51.121094 L 113.964844 51.324219 Z M 115.886719 28.800781 C 115.886719 28.113281 115.886719 27.429688 116.058594 26.742188 C 116.074219 26.558594 116.074219 26.378906 116.058594 26.195312 C 116.058594 25.644531 116.230469 25.097656 116.296875 24.582031 C 116.367188 24.070312 116.296875 24.308594 116.296875 24.171875 L 116.675781 22.320312 L 116.675781 21.875 C 116.675781 21.394531 116.914062 20.914062 117.015625 20.433594 C 117.121094 19.953125 117.015625 20.125 117.015625 19.953125 L 117.53125 18.273438 C 117.515625 18.207031 117.515625 18.136719 117.53125 18.070312 C 117.53125 17.589844 117.839844 17.109375 118.011719 16.664062 L 118.183594 16.183594 L 118.664062 14.949219 L 118.664062 14.675781 L 119.28125 13.304688 C 119.269531 13.1875 119.269531 13.074219 119.28125 12.960938 C 119.417969 12.617188 119.578125 12.289062 119.761719 11.964844 L 119.761719 11.65625 L 120.378906 10.527344 L 120.378906 10.320312 L 120.855469 9.460938 L 120.855469 9.015625 C 120.855469 8.8125 121.269531 9.804688 121.542969 10.21875 L 123.601562 13.644531 C 129.214844 21.515625 135.457031 28.851562 142.320312 35.65625 C 150.6875 45.121094 158.605469 54.035156 164.195312 67.714844 C 164.359375 68.65625 164.476562 69.605469 164.539062 70.558594 C 164.554688 70.789062 164.554688 71.015625 164.539062 71.246094 L 164.539062 77.761719 C 164.539062 78.136719 164.539062 79.132812 164.296875 79.816406 C 164.3125 80.148438 164.3125 80.480469 164.296875 80.8125 C 164.296875 81.769531 163.988281 82.765625 163.78125 83.726562 C 163.578125 84.753906 163.304688 85.75 163.027344 86.707031 L 162.070312 89.726562 L 161.65625 90.789062 L 160.867188 92.742188 L 160.421875 93.738281 L 159.015625 96.652344 C 158.503906 97.613281 157.988281 98.539062 157.40625 99.460938 L 156.996094 100.183594 L 155.621094 102.273438 L 154.972656 103.199219 L 153.601562 105.050781 C 153.382812 105.375 153.140625 105.683594 152.878906 105.976562 C 152.398438 106.628906 151.851562 107.246094 151.304688 107.898438 L 150.6875 108.617188 C 150.625 108.714844 150.542969 108.792969 150.445312 108.855469 C 150.445312 108.238281 150.445312 107.589844 150.6875 106.972656 C 150.925781 106.355469 150.6875 106.628906 150.6875 106.457031 L 150.6875 104.84375 C 150.667969 104.695312 150.667969 104.546875 150.6875 104.398438 L 150.6875 97.578125 C 150.664062 97.484375 150.664062 97.394531 150.6875 97.304688 C 150.6875 96.6875 150.6875 96.035156 150.445312 95.417969 C 150.207031 94.800781 150.445312 95.039062 150.445312 94.867188 C 150.164062 93.394531 149.796875 91.945312 149.347656 90.515625 C 149.367188 90.332031 149.367188 90.148438 149.347656 89.964844 C 149.347656 89.3125 148.972656 88.664062 148.765625 88.046875 L 148.765625 87.738281 C 148.539062 87.027344 148.261719 86.308594 147.941406 85.578125 L 147.429688 85.234375 C 147.183594 84.617188 146.910156 84.011719 146.605469 83.417969 L 146.398438 83.003906 L 145.234375 80.878906 L 144.996094 80.46875 L 143.863281 78.71875 L 143.519531 78.238281 C 143.046875 77.542969 142.542969 76.867188 142.011719 76.21875 L 141.769531 75.941406 L 140.261719 74.195312 C 140.09375 74.042969 139.933594 73.882812 139.78125 73.714844 C 139.164062 73.0625 138.515625 72.410156 137.828125 71.792969 L 137.144531 71.246094 L 136.972656 71.246094 L 136.765625 71.074219 L 136.765625 70.867188 C 136.308594 70.058594 135.816406 69.269531 135.292969 68.503906 C 135.21875 68.382812 135.140625 68.269531 135.050781 68.160156 C 134.503906 67.371094 133.953125 66.582031 133.335938 65.792969 L 133.132812 65.554688 C 131.808594 63.851562 130.378906 62.238281 128.84375 60.71875 C 126.636719 58.71875 124.675781 56.492188 122.96875 54.050781 C 121.261719 51.605469 119.84375 49 118.722656 46.238281 C 117.601562 43.476562 116.800781 40.621094 116.320312 37.679688 C 115.84375 34.734375 115.699219 31.777344 115.886719 28.800781 Z M 120.6875 128.949219 L 122.949219 126.996094 L 123.152344 126.789062 L 125.144531 124.730469 L 125.347656 124.457031 C 125.964844 123.769531 126.546875 123.050781 127.097656 122.332031 L 127.304688 122.023438 C 127.851562 121.304688 128.367188 120.546875 128.84375 119.792969 L 129.015625 119.519531 C 129.496094 118.742188 129.941406 117.953125 130.355469 117.152344 C 130.367188 117.074219 130.367188 116.996094 130.355469 116.914062 C 130.828125 116.136719 131.265625 115.335938 131.65625 114.515625 L 131.65625 114.308594 L 132.652344 111.738281 L 133.472656 109.0625 C 133.941406 107.421875 134.296875 105.757812 134.539062 104.070312 C 134.785156 102.382812 134.917969 100.6875 134.9375 98.984375 C 134.953125 97.277344 134.859375 95.578125 134.652344 93.886719 C 134.445312 92.195312 134.128906 90.523438 133.699219 88.871094 C 133.269531 87.222656 132.734375 85.605469 132.089844 84.027344 C 131.445312 82.449219 130.703125 80.921875 129.855469 79.441406 C 129.007812 77.960938 128.066406 76.542969 127.03125 75.1875 C 125.996094 73.835938 124.875 72.554688 123.667969 71.347656 C 126.671875 72.160156 129.460938 73.441406 132.035156 75.1875 L 132.34375 75.429688 C 132.71875 75.738281 133.097656 76.011719 133.371094 76.285156 L 134.949219 77.828125 L 135.429688 78.308594 L 136.355469 79.371094 L 137.144531 80.230469 L 137.898438 81.1875 C 138.078125 81.402344 138.238281 81.632812 138.378906 81.875 L 139.027344 82.800781 L 139.472656 83.484375 L 140.058594 84.410156 C 140.195312 84.644531 140.320312 84.882812 140.433594 85.132812 L 140.949219 86.089844 L 141.292969 86.8125 L 141.703125 87.738281 L 142.011719 88.457031 C 142.011719 88.765625 142.25 89.109375 142.386719 89.417969 C 142.527344 89.726562 142.386719 89.898438 142.628906 90.101562 C 142.867188 90.308594 142.835938 90.753906 142.9375 91.097656 C 143.027344 91.320312 143.09375 91.546875 143.144531 91.78125 C 143.144531 92.125 143.347656 92.46875 143.417969 92.777344 C 143.484375 93.085938 143.417969 93.222656 143.417969 93.429688 L 143.621094 94.527344 L 143.621094 95.074219 L 143.828125 96.410156 L 143.828125 98.296875 C 143.863281 98.777344 143.863281 99.257812 143.828125 99.738281 C 143.8125 99.886719 143.8125 100.035156 143.828125 100.183594 L 143.828125 102.789062 C 143.847656 102.972656 143.847656 103.152344 143.828125 103.335938 C 143.84375 103.644531 143.84375 103.953125 143.828125 104.261719 L 143.828125 104.8125 C 143.8125 105.109375 143.8125 105.40625 143.828125 105.703125 L 143.828125 107.074219 C 143.914062 107.261719 143.972656 107.453125 144 107.65625 L 144 108.515625 C 143.984375 108.652344 143.984375 108.789062 144 108.925781 L 144 109.816406 C 144.015625 109.929688 144.015625 110.046875 144 110.160156 C 143.960938 110.449219 143.90625 110.734375 143.828125 111.015625 L 143.828125 111.085938 L 143.621094 111.976562 L 143.621094 112.148438 C 143.28125 113.554688 142.9375 114.753906 142.628906 115.578125 L 142.421875 116.195312 C 142.421875 116.367188 142.421875 116.503906 142.25 116.640625 L 140.878906 117.703125 L 139.644531 118.628906 C 139.140625 119.027344 138.617188 119.390625 138.070312 119.726562 L 136.9375 120.546875 L 135.324219 121.578125 L 134.230469 122.261719 L 131.554688 123.839844 L 129.910156 124.695312 L 128.914062 125.246094 L 126.273438 126.480469 L 124.765625 127.097656 L 121.921875 128.230469 L 121.132812 128.503906 Z M 87.050781 83.65625 L 86.433594 84.070312 L 85.921875 84.308594 L 82.011719 84.308594 L 79.335938 84.546875 L 78.855469 84.546875 C 77.929688 84.546875 77.074219 84.789062 76.21875 84.960938 L 75.566406 84.960938 L 73.441406 85.441406 L 73.097656 85.441406 C 72.34375 85.644531 71.589844 85.851562 70.902344 86.089844 L 70.355469 86.089844 L 68.640625 86.742188 L 68.296875 86.742188 L 66.070312 87.804688 L 64.695312 88.558594 L 64.355469 88.765625 C 63.855469 89.058594 63.375 89.378906 62.914062 89.726562 L 62.605469 89.929688 L 61.507812 90.753906 L 61.234375 90.996094 L 60.070312 91.988281 L 59.003906 93.050781 L 58.800781 93.292969 L 57.910156 94.285156 L 57.910156 94.457031 L 57.257812 95.28125 L 57.257812 95.519531 C 57.027344 95.8125 56.820312 96.121094 56.640625 96.445312 L 56.160156 97.199219 L 56.160156 95.554688 C 56.175781 95.460938 56.175781 95.371094 56.160156 95.28125 L 56.160156 90.273438 C 56.277344 89.339844 56.015625 88.527344 55.371094 87.839844 C 54.746094 87.152344 53.96875 86.8125 53.039062 86.8125 C 51.445312 86.847656 49.871094 86.6875 48.316406 86.324219 C 46.765625 85.960938 45.28125 85.410156 43.871094 84.667969 C 42.457031 83.925781 41.160156 83.019531 39.976562 81.949219 C 38.796875 80.878906 37.765625 79.675781 36.890625 78.34375 C 38.941406 77.394531 41.070312 76.6875 43.28125 76.21875 C 45.488281 75.75 47.722656 75.53125 49.980469 75.566406 C 52.238281 75.597656 54.464844 75.878906 56.660156 76.414062 C 58.851562 76.945312 60.960938 77.714844 62.984375 78.71875 L 64.695312 79.472656 L 65.347656 79.714844 L 66.445312 80.160156 L 67.199219 80.398438 L 68.125 80.742188 L 68.914062 80.984375 L 69.839844 81.222656 C 70.097656 81.3125 70.359375 81.378906 70.628906 81.429688 L 71.484375 81.667969 L 72.308594 81.839844 L 87.804688 81.839844 Z M 62.8125 43.164062 C 62.46875 46.273438 62.46875 49.382812 62.8125 52.492188 L 62.640625 52.492188 C 61.953125 52.238281 61.269531 52.035156 60.582031 51.875 L 60.207031 51.875 L 58.285156 51.222656 L 58.046875 51.222656 C 56.503906 50.949219 54.996094 50.742188 53.589844 50.570312 C 56.414062 47.792969 59.488281 45.324219 62.8125 43.164062 Z M 13.714844 95.761719 C 13.332031 92.996094 13.332031 90.230469 13.714844 87.460938 C 13.953125 85.75 14.195312 84.035156 14.46875 82.730469 L 14.46875 82.527344 C 14.46875 81.667969 15.121094 78.035156 15.257812 77.453125 L 15.257812 76.902344 C 17.265625 67.953125 20.921875 59.734375 26.230469 52.25 L 26.433594 51.941406 C 28.789062 48.644531 31.40625 45.570312 34.285156 42.71875 C 36.121094 40.863281 38.066406 39.128906 40.113281 37.507812 C 40.113281 43.199219 40.902344 51.53125 43.851562 55.234375 C 44.058594 55.476562 44.300781 55.683594 44.570312 55.851562 L 44.914062 56.058594 C 45.121094 56.164062 45.335938 56.230469 45.566406 56.261719 C 45.792969 56.296875 46.023438 56.296875 46.25 56.261719 L 51.257812 56.261719 C 55.679688 56.464844 59.851562 57.597656 63.769531 59.65625 L 65.484375 60.789062 C 66.273438 61.335938 66.855469 61.75 67.472656 62.261719 C 68.089844 62.777344 69.875 64.492188 72.308594 66.855469 L 73.199219 67.75 L 74.742188 69.121094 L 76.421875 70.386719 L 77.792969 71.347656 L 78.101562 71.347656 L 79.679688 72.378906 L 80.125 72.617188 L 81.769531 73.613281 L 83.792969 74.742188 L 85.441406 75.601562 L 85.78125 75.601562 L 87.292969 76.386719 L 78.855469 76.386719 C 77.964844 76.386719 77.039062 76.386719 76.113281 76.148438 L 72.71875 76.148438 L 72 76.183594 L 71.382812 76.183594 L 70.527344 75.941406 L 69.910156 75.738281 L 69.015625 75.429688 L 68.433594 75.257812 L 67.441406 74.847656 L 66.925781 74.847656 L 65.144531 73.886719 C 63.785156 73.199219 62.390625 72.601562 60.957031 72.09375 C 59.523438 71.585938 58.066406 71.171875 56.578125 70.851562 C 55.089844 70.53125 53.589844 70.308594 52.074219 70.179688 C 50.558594 70.050781 49.042969 70.019531 47.523438 70.089844 C 46.003906 70.15625 44.496094 70.320312 42.996094 70.582031 C 41.5 70.84375 40.023438 71.199219 38.570312 71.648438 C 37.121094 72.097656 35.703125 72.640625 34.320312 73.273438 C 32.9375 73.90625 31.597656 74.625 30.308594 75.429688 C 30.023438 75.628906 29.78125 75.871094 29.578125 76.152344 C 29.378906 76.433594 29.230469 76.742188 29.132812 77.074219 C 29.035156 77.410156 28.996094 77.75 29.015625 78.097656 C 29.035156 78.441406 29.113281 78.777344 29.246094 79.097656 C 29.6875 80.078125 30.195312 81.027344 30.757812 81.945312 C 31.324219 82.863281 31.949219 83.738281 32.628906 84.574219 C 33.308594 85.410156 34.039062 86.199219 34.820312 86.941406 C 35.601562 87.683594 36.429688 88.371094 37.300781 89.003906 C 38.171875 89.640625 39.078125 90.214844 40.023438 90.734375 C 40.96875 91.25 41.945312 91.703125 42.949219 92.09375 C 43.953125 92.484375 44.976562 92.808594 46.023438 93.066406 C 47.070312 93.324219 48.128906 93.511719 49.199219 93.632812 C 48.789062 109.613281 58.628906 124.492188 74.984375 132.34375 L 76.113281 132.890625 C 79.898438 134.875 83.875 136.351562 88.039062 137.316406 C 92.203125 138.28125 96.425781 138.703125 100.695312 138.582031 L 101.453125 138.582031 C 110.695312 138.414062 119.53125 136.425781 127.953125 132.617188 L 130.765625 131.28125 L 131.929688 130.695312 L 133.679688 129.769531 L 135.222656 128.878906 L 137.144531 128.230469 L 140.195312 126.273438 L 142.285156 124.800781 L 143.28125 124.078125 C 144.34375 123.324219 145.371094 122.503906 146.433594 121.679688 L 146.777344 121.304688 L 150 118.457031 C 150.9375 117.632812 151.828125 116.777344 152.675781 115.886719 L 153.050781 115.507812 L 155.726562 112.59375 L 158.023438 109.78125 C 158.160156 109.589844 158.308594 109.410156 158.46875 109.234375 L 160.558594 106.355469 L 160.800781 105.976562 C 161.453125 105.015625 162.101562 104.023438 162.6875 103.027344 C 162.691406 102.949219 162.691406 102.867188 162.6875 102.789062 C 163.304688 101.761719 163.886719 100.730469 164.433594 99.667969 L 164.675781 99.1875 C 165.222656 98.160156 165.738281 97.0625 166.21875 96 L 166.21875 95.761719 C 166.695312 94.617188 167.144531 93.472656 167.554688 92.332031 C 167.851562 91.554688 168.125 90.765625 168.378906 89.964844 L 168.378906 98.195312 C 168.390625 98.445312 168.390625 98.695312 168.378906 98.949219 C 168.378906 99.976562 168.171875 101.003906 168.070312 102 L 168.070312 102.617188 C 168.070312 103.472656 167.828125 104.367188 167.65625 105.222656 L 167.65625 105.875 L 167.074219 108.753906 L 167.074219 109.40625 L 166.492188 111.839844 C 166.480469 112.023438 166.480469 112.207031 166.492188 112.386719 L 165.496094 115.679688 L 164.707031 118.011719 L 164.707031 118.320312 L 163.75 120.753906 L 163.542969 121.304688 L 162.515625 123.601562 C 153.1875 143.484375 130.355469 164.398438 94.285156 163.371094 C 54.480469 162.171875 20.230469 133.199219 13.886719 95.898438 Z M 178.285156 105.222656 L 178.285156 106.113281 C 178.285156 106.902344 178.285156 107.691406 178.011719 108.34375 C 177.628906 110.484375 177.164062 112.605469 176.613281 114.710938 C 176.066406 116.8125 175.433594 118.890625 174.722656 120.945312 C 174.011719 123 173.21875 125.023438 172.347656 127.015625 C 171.476562 129.007812 170.527344 130.964844 169.503906 132.882812 C 168.480469 134.800781 167.382812 136.675781 166.210938 138.507812 C 165.039062 140.339844 163.796875 142.121094 162.488281 143.855469 C 161.175781 145.589844 159.796875 147.269531 158.355469 148.898438 C 156.914062 150.523438 155.40625 152.089844 153.839844 153.601562 C 152.277344 155.109375 150.652344 156.554688 148.972656 157.933594 C 147.292969 159.316406 145.5625 160.628906 143.78125 161.875 C 142 163.117188 140.167969 164.292969 138.296875 165.394531 C 136.421875 166.496094 134.503906 167.523438 132.550781 168.472656 C 130.59375 169.425781 128.605469 170.300781 126.582031 171.09375 C 124.558594 171.890625 122.507812 172.605469 120.425781 173.238281 C 118.347656 173.875 116.246094 174.425781 114.125 174.894531 C 112 175.367188 109.863281 175.75 107.707031 176.054688 C 105.554688 176.355469 103.394531 176.570312 101.222656 176.703125 C 99.054688 176.835938 96.882812 176.882812 94.707031 176.84375 C 92.53125 176.808594 90.363281 176.683594 88.199219 176.476562 C 86.035156 176.265625 83.882812 175.976562 81.742188 175.597656 C 79.597656 175.21875 77.476562 174.757812 75.371094 174.214844 C 73.265625 173.671875 71.183594 173.046875 69.128906 172.339844 C 67.074219 171.632812 65.046875 170.847656 63.050781 169.980469 C 61.058594 169.113281 59.101562 168.171875 57.179688 167.152344 C 55.257812 166.132812 53.382812 165.039062 51.546875 163.871094 C 49.710938 162.707031 47.925781 161.46875 46.1875 160.160156 C 44.449219 158.855469 42.765625 157.480469 41.136719 156.042969 C 39.507812 154.601562 37.9375 153.101562 36.425781 151.539062 C 34.910156 149.976562 33.464844 148.359375 32.078125 146.683594 C 30.691406 145.007812 29.375 143.277344 28.125 141.5 C 26.875 139.71875 25.699219 137.894531 24.589844 136.023438 C 23.484375 134.152344 22.453125 132.238281 21.496094 130.285156 L 22.011719 130.972656 L 22.527344 131.761719 L 24.546875 134.433594 L 26.605469 136.972656 L 27.222656 137.691406 L 28.972656 139.679688 L 29.484375 140.230469 C 30.238281 141.050781 30.996094 141.839844 31.75 142.59375 L 34.9375 145.613281 C 35.726562 146.367188 36.546875 147.085938 37.371094 147.769531 L 37.816406 148.148438 C 38.527344 148.765625 39.246094 149.347656 39.976562 149.898438 L 40.765625 150.515625 L 43.472656 152.539062 L 46.183594 154.386719 L 47.003906 154.902344 C 47.726562 155.417969 48.480469 155.863281 49.269531 156.34375 C 49.472656 156.488281 49.691406 156.613281 49.921875 156.71875 C 50.847656 157.304688 51.804688 157.851562 52.765625 158.367188 L 53.519531 158.777344 L 55.851562 159.976562 L 56.675781 160.386719 L 59.691406 161.792969 L 60.238281 162.035156 L 62.847656 163.132812 L 63.738281 163.472656 L 66.753906 164.570312 L 66.925781 164.570312 C 67.988281 164.949219 69.085938 165.292969 70.148438 165.601562 L 71.074219 165.875 L 73.78125 166.628906 L 74.433594 166.628906 L 77.863281 167.382812 L 78.6875 167.554688 L 81.394531 168.035156 L 82.25 168.035156 C 83.382812 168.035156 84.515625 168.378906 85.679688 168.480469 L 86.261719 168.480469 L 89.175781 168.753906 L 90.136719 168.753906 C 91.304688 168.753906 92.445312 168.824219 93.566406 168.960938 L 96 168.960938 C 99.292969 169.058594 102.578125 168.949219 105.859375 168.628906 C 109.136719 168.308594 112.382812 167.78125 115.59375 167.046875 C 118.804688 166.3125 121.957031 165.378906 125.046875 164.242188 C 128.140625 163.105469 131.148438 161.777344 134.070312 160.257812 C 136.996094 158.738281 139.808594 157.039062 142.515625 155.160156 C 145.222656 153.28125 147.796875 151.238281 150.242188 149.03125 C 152.6875 146.824219 154.984375 144.46875 157.128906 141.96875 C 159.273438 139.46875 161.253906 136.84375 163.0625 134.089844 C 164.683594 131.527344 166.144531 128.875 167.453125 126.136719 C 169.554688 121.554688 171.210938 116.816406 172.421875 111.921875 C 173.628906 107.027344 174.375 102.0625 174.648438 97.027344 C 174.925781 91.992188 174.730469 86.976562 174.058594 81.976562 C 173.390625 76.980469 172.261719 72.089844 170.675781 67.304688 C 170.675781 66.960938 170.46875 66.617188 170.332031 66.273438 C 169.636719 62.007812 168.605469 57.828125 167.246094 53.726562 C 169.503906 56.863281 171.390625 60.214844 172.902344 63.769531 C 175.539062 70.339844 177.3125 77.136719 178.226562 84.15625 C 179.136719 91.175781 179.15625 98.199219 178.285156 105.222656 Z M 178.285156 105.222656 " clip-rule="nonzero"/></clipPath><linearGradient x1="5264.019304" gradientTransform="matrix(0.0342857, 0, 0, 0.0342857, 0.000002, 0)" y1="-117.847644" x2="441.420933" gradientUnits="userSpaceOnUse" y2="5596.109524" id="aac26abe66"><stop stop-opacity="1" stop-color="rgb(100%, 59.599304%, 5.499268%)" offset="0"/><stop stop-opacity="1" stop-color="rgb(100%, 59.599304%, 5.499268%)" offset="0.0625"/><stop stop-opacity="1" stop-color="rgb(100%, 59.599304%, 5.499268%)" offset="0.0703125"/><stop stop-opacity="1" stop-color="rgb(100%, 59.396362%, 5.621338%)" offset="0.0742188"/><stop stop-opacity="1" stop-color="rgb(100%, 59.19342%, 5.744934%)" offset="0.078125"/><stop stop-opacity="1" stop-color="rgb(100%, 58.937073%, 5.900574%)" offset="0.0820312"/><stop stop-opacity="1" stop-color="rgb(100%, 58.680725%, 6.057739%)" offset="0.0859375"/><stop stop-opacity="1" stop-color="rgb(100%, 58.424377%, 6.213379%)" offset="0.0898438"/><stop stop-opacity="1" stop-color="rgb(100%, 58.169556%, 6.369019%)" offset="0.09375"/><stop stop-opacity="1" stop-color="rgb(100%, 57.913208%, 6.524658%)" offset="0.0976562"/><stop stop-opacity="1" stop-color="rgb(100%, 57.65686%, 6.680298%)" offset="0.101562"/><stop stop-opacity="1" stop-color="rgb(100%, 57.400513%, 6.835938%)" offset="0.105469"/><stop stop-opacity="1" stop-color="rgb(100%, 57.144165%, 6.991577%)" offset="0.109375"/><stop stop-opacity="1" stop-color="rgb(100%, 56.887817%, 7.147217%)" offset="0.113281"/><stop stop-opacity="1" stop-color="rgb(100%, 56.63147%, 7.302856%)" offset="0.117187"/><stop stop-opacity="1" stop-color="rgb(100%, 56.375122%, 7.458496%)" offset="0.121094"/><stop stop-opacity="1" stop-color="rgb(100%, 56.118774%, 7.614136%)" offset="0.125"/><stop stop-opacity="1" stop-color="rgb(100%, 55.862427%, 7.769775%)" offset="0.128906"/><stop stop-opacity="1" stop-color="rgb(100%, 55.606079%, 7.926941%)" offset="0.132812"/><stop stop-opacity="1" stop-color="rgb(100%, 55.349731%, 8.082581%)" offset="0.136719"/><stop stop-opacity="1" stop-color="rgb(100%, 55.093384%, 8.23822%)" offset="0.140625"/><stop stop-opacity="1" stop-color="rgb(100%, 54.837036%, 8.39386%)" offset="0.144531"/><stop stop-opacity="1" stop-color="rgb(100%, 54.582214%, 8.5495%)" offset="0.148437"/><stop stop-opacity="1" stop-color="rgb(100%, 54.243469%, 8.740234%)" offset="0.152344"/><stop stop-opacity="1" stop-color="rgb(100%, 53.904724%, 8.932495%)" offset="0.15625"/><stop stop-opacity="1" stop-color="rgb(100%, 53.55072%, 9.130859%)" offset="0.160156"/><stop stop-opacity="1" stop-color="rgb(100%, 53.196716%, 9.329224%)" offset="0.164062"/><stop stop-opacity="1" stop-color="rgb(100%, 52.841187%, 9.527588%)" offset="0.167969"/><stop stop-opacity="1" stop-color="rgb(100%, 52.487183%, 9.725952%)" offset="0.171875"/><stop stop-opacity="1" stop-color="rgb(100%, 52.133179%, 9.924316%)" offset="0.175781"/><stop stop-opacity="1" stop-color="rgb(100%, 51.779175%, 10.122681%)" offset="0.179687"/><stop stop-opacity="1" stop-color="rgb(100%, 51.425171%, 10.321045%)" offset="0.183594"/><stop stop-opacity="1" stop-color="rgb(100%, 51.071167%, 10.519409%)" offset="0.1875"/><stop stop-opacity="1" stop-color="rgb(100%, 50.715637%, 10.717773%)" offset="0.191406"/><stop stop-opacity="1" stop-color="rgb(100%, 50.361633%, 10.917664%)" offset="0.195312"/><stop stop-opacity="1" stop-color="rgb(100%, 50.007629%, 11.116028%)" offset="0.199219"/><stop stop-opacity="1" stop-color="rgb(100%, 49.653625%, 11.314392%)" offset="0.203125"/><stop stop-opacity="1" stop-color="rgb(100%, 49.299622%, 11.512756%)" offset="0.207031"/><stop stop-opacity="1" stop-color="rgb(100%, 48.945618%, 11.711121%)" offset="0.210937"/><stop stop-opacity="1" stop-color="rgb(100%, 48.591614%, 11.909485%)" offset="0.214844"/><stop stop-opacity="1" stop-color="rgb(100%, 48.23761%, 12.107849%)" offset="0.21875"/><stop stop-opacity="1" stop-color="rgb(100%, 47.88208%, 12.306213%)" offset="0.222656"/><stop stop-opacity="1" stop-color="rgb(100%, 47.528076%, 12.504578%)" offset="0.226562"/><stop stop-opacity="1" stop-color="rgb(100%, 47.174072%, 12.702942%)" offset="0.230469"/><stop stop-opacity="1" stop-color="rgb(100%, 46.820068%, 12.901306%)" offset="0.234375"/><stop stop-opacity="1" stop-color="rgb(100%, 46.466064%, 13.09967%)" offset="0.238281"/><stop stop-opacity="1" stop-color="rgb(100%, 46.112061%, 13.298035%)" offset="0.242187"/><stop stop-opacity="1" stop-color="rgb(100%, 45.756531%, 13.496399%)" offset="0.246094"/><stop stop-opacity="1" stop-color="rgb(100%, 45.402527%, 13.696289%)" offset="0.25"/><stop stop-opacity="1" stop-color="rgb(100%, 45.048523%, 13.894653%)" offset="0.253906"/><stop stop-opacity="1" stop-color="rgb(100%, 44.694519%, 14.093018%)" offset="0.257812"/><stop stop-opacity="1" stop-color="rgb(100%, 44.340515%, 14.291382%)" offset="0.261719"/><stop stop-opacity="1" stop-color="rgb(100%, 43.986511%, 14.489746%)" offset="0.265625"/><stop stop-opacity="1" stop-color="rgb(100%, 43.632507%, 14.68811%)" offset="0.269531"/><stop stop-opacity="1" stop-color="rgb(100%, 43.278503%, 14.886475%)" offset="0.273437"/><stop stop-opacity="1" stop-color="rgb(100%, 42.922974%, 15.084839%)" offset="0.277344"/><stop stop-opacity="1" stop-color="rgb(100%, 42.56897%, 15.283203%)" offset="0.28125"/><stop stop-opacity="1" stop-color="rgb(100%, 42.214966%, 15.481567%)" offset="0.285156"/><stop stop-opacity="1" stop-color="rgb(100%, 41.860962%, 15.679932%)" offset="0.289062"/><stop stop-opacity="1" stop-color="rgb(100%, 41.506958%, 15.878296%)" offset="0.292969"/><stop stop-opacity="1" stop-color="rgb(100%, 41.152954%, 16.07666%)" offset="0.296875"/><stop stop-opacity="1" stop-color="rgb(100%, 40.79895%, 16.275024%)" offset="0.300781"/><stop stop-opacity="1" stop-color="rgb(100%, 40.444946%, 16.473389%)" offset="0.304687"/><stop stop-opacity="1" stop-color="rgb(100%, 40.014648%, 16.725159%)" offset="0.308594"/><stop stop-opacity="1" stop-color="rgb(100%, 39.585876%, 16.978455%)" offset="0.3125"/><stop stop-opacity="1" stop-color="rgb(100%, 39.151001%, 17.233276%)" offset="0.316406"/><stop stop-opacity="1" stop-color="rgb(100%, 38.717651%, 17.488098%)" offset="0.320312"/><stop stop-opacity="1" stop-color="rgb(100%, 38.282776%, 17.74292%)" offset="0.324219"/><stop stop-opacity="1" stop-color="rgb(100%, 37.849426%, 17.999268%)" offset="0.328125"/><stop stop-opacity="1" stop-color="rgb(100%, 37.414551%, 18.254089%)" offset="0.332031"/><stop stop-opacity="1" stop-color="rgb(100%, 36.981201%, 18.510437%)" offset="0.335937"/><stop stop-opacity="1" stop-color="rgb(100%, 36.546326%, 18.765259%)" offset="0.339844"/><stop stop-opacity="1" stop-color="rgb(100%, 36.112976%, 19.021606%)" offset="0.34375"/><stop stop-opacity="1" stop-color="rgb(100%, 35.678101%, 19.276428%)" offset="0.347656"/><stop stop-opacity="1" stop-color="rgb(100%, 35.244751%, 19.532776%)" offset="0.351562"/><stop stop-opacity="1" stop-color="rgb(100%, 34.809875%, 19.787598%)" offset="0.355469"/><stop stop-opacity="1" stop-color="rgb(100%, 34.376526%, 20.043945%)" offset="0.359375"/><stop stop-opacity="1" stop-color="rgb(100%, 33.94165%, 20.298767%)" offset="0.363281"/><stop stop-opacity="1" stop-color="rgb(100%, 33.508301%, 20.555115%)" offset="0.367187"/><stop stop-opacity="1" stop-color="rgb(100%, 33.073425%, 20.809937%)" offset="0.371094"/><stop stop-opacity="1" stop-color="rgb(100%, 32.640076%, 21.066284%)" offset="0.375"/><stop stop-opacity="1" stop-color="rgb(100%, 32.2052%, 21.321106%)" offset="0.378906"/><stop stop-opacity="1" stop-color="rgb(100%, 31.771851%, 21.575928%)" offset="0.382812"/><stop stop-opacity="1" stop-color="rgb(100%, 31.336975%, 21.83075%)" offset="0.386719"/><stop stop-opacity="1" stop-color="rgb(100%, 30.903625%, 22.087097%)" offset="0.390625"/><stop stop-opacity="1" stop-color="rgb(100%, 30.46875%, 22.341919%)" offset="0.394531"/><stop stop-opacity="1" stop-color="rgb(100%, 30.0354%, 22.598267%)" offset="0.398437"/><stop stop-opacity="1" stop-color="rgb(100%, 29.600525%, 22.853088%)" offset="0.402344"/><stop stop-opacity="1" stop-color="rgb(100%, 29.167175%, 23.109436%)" offset="0.40625"/><stop stop-opacity="1" stop-color="rgb(100%, 28.7323%, 23.364258%)" offset="0.410156"/><stop stop-opacity="1" stop-color="rgb(100%, 28.29895%, 23.620605%)" offset="0.414062"/><stop stop-opacity="1" stop-color="rgb(100%, 27.864075%, 23.875427%)" offset="0.417969"/><stop stop-opacity="1" stop-color="rgb(100%, 27.430725%, 24.131775%)" offset="0.421875"/><stop stop-opacity="1" stop-color="rgb(100%, 26.99585%, 24.386597%)" offset="0.425781"/><stop stop-opacity="1" stop-color="rgb(100%, 26.5625%, 24.642944%)" offset="0.429687"/><stop stop-opacity="1" stop-color="rgb(100%, 26.127625%, 24.897766%)" offset="0.433594"/><stop stop-opacity="1" stop-color="rgb(100%, 25.694275%, 25.154114%)" offset="0.4375"/><stop stop-opacity="1" stop-color="rgb(100%, 25.259399%, 25.408936%)" offset="0.441406"/><stop stop-opacity="1" stop-color="rgb(100%, 24.82605%, 25.663757%)" offset="0.445312"/><stop stop-opacity="1" stop-color="rgb(100%, 24.391174%, 25.918579%)" offset="0.449219"/><stop stop-opacity="1" stop-color="rgb(100%, 23.957825%, 26.174927%)" offset="0.453125"/><stop stop-opacity="1" stop-color="rgb(100%, 23.522949%, 26.429749%)" offset="0.457031"/><stop stop-opacity="1" stop-color="rgb(100%, 23.0896%, 26.686096%)" offset="0.460938"/><stop stop-opacity="1" stop-color="rgb(100%, 22.654724%, 26.940918%)" offset="0.464844"/><stop stop-opacity="1" stop-color="rgb(100%, 22.221375%, 27.197266%)" offset="0.46875"/><stop stop-opacity="1" stop-color="rgb(100%, 21.786499%, 27.452087%)" offset="0.472656"/><stop stop-opacity="1" stop-color="rgb(100%, 21.353149%, 27.708435%)" offset="0.476563"/><stop stop-opacity="1" stop-color="rgb(99.891663%, 21.148682%, 27.998352%)" offset="0.480469"/><stop stop-opacity="1" stop-color="rgb(99.783325%, 20.944214%, 28.289795%)" offset="0.484375"/><stop stop-opacity="1" stop-color="rgb(99.6521%, 20.7901%, 28.588867%)" offset="0.488281"/><stop stop-opacity="1" stop-color="rgb(99.5224%, 20.635986%, 28.887939%)" offset="0.492188"/><stop stop-opacity="1" stop-color="rgb(99.391174%, 20.480347%, 29.185486%)" offset="0.496094"/><stop stop-opacity="1" stop-color="rgb(99.259949%, 20.326233%, 29.484558%)" offset="0.5"/><stop stop-opacity="1" stop-color="rgb(99.128723%, 20.170593%, 29.78363%)" offset="0.503906"/><stop stop-opacity="1" stop-color="rgb(98.999023%, 20.016479%, 30.082703%)" offset="0.507812"/><stop stop-opacity="1" stop-color="rgb(98.867798%, 19.86084%, 30.380249%)" offset="0.511719"/><stop stop-opacity="1" stop-color="rgb(98.736572%, 19.706726%, 30.679321%)" offset="0.515625"/><stop stop-opacity="1" stop-color="rgb(98.605347%, 19.552612%, 30.978394%)" offset="0.519531"/><stop stop-opacity="1" stop-color="rgb(98.475647%, 19.398499%, 31.277466%)" offset="0.523438"/><stop stop-opacity="1" stop-color="rgb(98.344421%, 19.242859%, 31.575012%)" offset="0.527344"/><stop stop-opacity="1" stop-color="rgb(98.213196%, 19.088745%, 31.874084%)" offset="0.53125"/><stop stop-opacity="1" stop-color="rgb(98.08197%, 18.933105%, 32.173157%)" offset="0.535156"/><stop stop-opacity="1" stop-color="rgb(97.950745%, 18.778992%, 32.472229%)" offset="0.539062"/><stop stop-opacity="1" stop-color="rgb(97.819519%, 18.623352%, 32.769775%)" offset="0.542969"/><stop stop-opacity="1" stop-color="rgb(97.689819%, 18.469238%, 33.068848%)" offset="0.546875"/><stop stop-opacity="1" stop-color="rgb(97.558594%, 18.315125%, 33.36792%)" offset="0.550781"/><stop stop-opacity="1" stop-color="rgb(97.427368%, 18.161011%, 33.666992%)" offset="0.554688"/><stop stop-opacity="1" stop-color="rgb(97.296143%, 18.005371%, 33.964539%)" offset="0.558594"/><stop stop-opacity="1" stop-color="rgb(97.166443%, 17.851257%, 34.263611%)" offset="0.5625"/><stop stop-opacity="1" stop-color="rgb(97.035217%, 17.695618%, 34.562683%)" offset="0.566406"/><stop stop-opacity="1" stop-color="rgb(96.903992%, 17.541504%, 34.861755%)" offset="0.570313"/><stop stop-opacity="1" stop-color="rgb(96.772766%, 17.385864%, 35.159302%)" offset="0.574219"/><stop stop-opacity="1" stop-color="rgb(96.643066%, 17.23175%, 35.458374%)" offset="0.578125"/><stop stop-opacity="1" stop-color="rgb(96.511841%, 17.077637%, 35.757446%)" offset="0.582031"/><stop stop-opacity="1" stop-color="rgb(96.380615%, 16.923523%, 36.056519%)" offset="0.585938"/><stop stop-opacity="1" stop-color="rgb(96.24939%, 16.767883%, 36.354065%)" offset="0.589844"/><stop stop-opacity="1" stop-color="rgb(96.11969%, 16.61377%, 36.653137%)" offset="0.59375"/><stop stop-opacity="1" stop-color="rgb(95.988464%, 16.45813%, 36.952209%)" offset="0.597656"/><stop stop-opacity="1" stop-color="rgb(95.857239%, 16.304016%, 37.251282%)" offset="0.601562"/><stop stop-opacity="1" stop-color="rgb(95.726013%, 16.148376%, 37.548828%)" offset="0.605469"/><stop stop-opacity="1" stop-color="rgb(95.594788%, 15.994263%, 37.8479%)" offset="0.609375"/><stop stop-opacity="1" stop-color="rgb(95.463562%, 15.838623%, 38.146973%)" offset="0.613281"/><stop stop-opacity="1" stop-color="rgb(95.333862%, 15.684509%, 38.446045%)" offset="0.617188"/><stop stop-opacity="1" stop-color="rgb(95.202637%, 15.530396%, 38.743591%)" offset="0.621094"/><stop stop-opacity="1" stop-color="rgb(95.071411%, 15.376282%, 39.042664%)" offset="0.625"/><stop stop-opacity="1" stop-color="rgb(94.940186%, 15.220642%, 39.341736%)" offset="0.628906"/><stop stop-opacity="1" stop-color="rgb(94.810486%, 15.066528%, 39.640808%)" offset="0.632813"/><stop stop-opacity="1" stop-color="rgb(94.67926%, 14.910889%, 39.938354%)" offset="0.636719"/><stop stop-opacity="1" stop-color="rgb(94.548035%, 14.756775%, 40.237427%)" offset="0.640625"/><stop stop-opacity="1" stop-color="rgb(94.416809%, 14.601135%, 40.536499%)" offset="0.644531"/><stop stop-opacity="1" stop-color="rgb(94.287109%, 14.447021%, 40.835571%)" offset="0.648438"/><stop stop-opacity="1" stop-color="rgb(94.155884%, 14.292908%, 41.133118%)" offset="0.652344"/><stop stop-opacity="1" stop-color="rgb(94.024658%, 14.138794%, 41.43219%)" offset="0.65625"/><stop stop-opacity="1" stop-color="rgb(93.893433%, 13.983154%, 41.731262%)" offset="0.660156"/><stop stop-opacity="1" stop-color="rgb(93.762207%, 13.829041%, 42.030334%)" offset="0.664062"/><stop stop-opacity="1" stop-color="rgb(93.630981%, 13.673401%, 42.327881%)" offset="0.667969"/><stop stop-opacity="1" stop-color="rgb(93.501282%, 13.519287%, 42.626953%)" offset="0.671875"/><stop stop-opacity="1" stop-color="rgb(93.370056%, 13.363647%, 42.926025%)" offset="0.675781"/><stop stop-opacity="1" stop-color="rgb(93.238831%, 13.209534%, 43.225098%)" offset="0.679688"/><stop stop-opacity="1" stop-color="rgb(93.107605%, 13.05542%, 43.522644%)" offset="0.683594"/><stop stop-opacity="1" stop-color="rgb(92.977905%, 12.901306%, 43.821716%)" offset="0.6875"/><stop stop-opacity="1" stop-color="rgb(92.84668%, 12.745667%, 44.120789%)" offset="0.691406"/><stop stop-opacity="1" stop-color="rgb(92.715454%, 12.591553%, 44.419861%)" offset="0.695313"/><stop stop-opacity="1" stop-color="rgb(92.584229%, 12.435913%, 44.717407%)" offset="0.699219"/><stop stop-opacity="1" stop-color="rgb(92.454529%, 12.281799%, 45.016479%)" offset="0.703125"/><stop stop-opacity="1" stop-color="rgb(92.323303%, 12.12616%, 45.315552%)" offset="0.707031"/><stop stop-opacity="1" stop-color="rgb(92.192078%, 11.972046%, 45.614624%)" offset="0.710938"/><stop stop-opacity="1" stop-color="rgb(92.060852%, 11.817932%, 45.91217%)" offset="0.714844"/><stop stop-opacity="1" stop-color="rgb(91.929626%, 11.663818%, 46.211243%)" offset="0.71875"/><stop stop-opacity="1" stop-color="rgb(91.798401%, 11.508179%, 46.510315%)" offset="0.722656"/><stop stop-opacity="1" stop-color="rgb(91.668701%, 11.354065%, 46.809387%)" offset="0.726562"/><stop stop-opacity="1" stop-color="rgb(91.537476%, 11.198425%, 47.106934%)" offset="0.730469"/><stop stop-opacity="1" stop-color="rgb(91.40625%, 11.044312%, 47.406006%)" offset="0.734375"/><stop stop-opacity="1" stop-color="rgb(91.275024%, 10.888672%, 47.703552%)" offset="0.738281"/><stop stop-opacity="1" stop-color="rgb(91.145325%, 10.734558%, 48.002625%)" offset="0.742188"/><stop stop-opacity="1" stop-color="rgb(91.014099%, 10.578918%, 48.301697%)" offset="0.746094"/><stop stop-opacity="1" stop-color="rgb(90.882874%, 10.424805%, 48.600769%)" offset="0.75"/><stop stop-opacity="1" stop-color="rgb(90.751648%, 10.270691%, 48.898315%)" offset="0.753906"/><stop stop-opacity="1" stop-color="rgb(90.621948%, 10.116577%, 49.197388%)" offset="0.757813"/><stop stop-opacity="1" stop-color="rgb(90.490723%, 9.960938%, 49.49646%)" offset="0.761719"/><stop stop-opacity="1" stop-color="rgb(90.359497%, 9.806824%, 49.795532%)" offset="0.765625"/><stop stop-opacity="1" stop-color="rgb(90.228271%, 9.651184%, 50.093079%)" offset="0.769531"/><stop stop-opacity="1" stop-color="rgb(90.097046%, 9.49707%, 50.392151%)" offset="0.773438"/><stop stop-opacity="1" stop-color="rgb(89.96582%, 9.341431%, 50.691223%)" offset="0.777344"/><stop stop-opacity="1" stop-color="rgb(89.836121%, 9.187317%, 50.990295%)" offset="0.78125"/><stop stop-opacity="1" stop-color="rgb(89.704895%, 9.033203%, 51.287842%)" offset="0.785156"/><stop stop-opacity="1" stop-color="rgb(89.573669%, 8.879089%, 51.586914%)" offset="0.789062"/><stop stop-opacity="1" stop-color="rgb(89.442444%, 8.72345%, 51.885986%)" offset="0.792969"/><stop stop-opacity="1" stop-color="rgb(89.312744%, 8.569336%, 52.185059%)" offset="0.796875"/><stop stop-opacity="1" stop-color="rgb(89.181519%, 8.413696%, 52.482605%)" offset="0.800781"/><stop stop-opacity="1" stop-color="rgb(89.050293%, 8.259583%, 52.781677%)" offset="0.804688"/><stop stop-opacity="1" stop-color="rgb(89.024353%, 8.229065%, 52.839661%)" offset="0.8125"/><stop stop-opacity="1" stop-color="rgb(88.999939%, 8.198547%, 52.89917%)" offset="0.875"/><stop stop-opacity="1" stop-color="rgb(88.999939%, 8.198547%, 52.89917%)" offset="1"/></linearGradient></defs><g clip-path="url(#54f1348228)"><g clip-path="url(#c13a9980b9)"><path fill="url(#aac26abe66)" d="M 7.039062 0.207031 L 7.039062 185.035156 L 185.511719 185.035156 L 185.511719 0.207031 Z M 7.039062 0.207031 " fill-rule="nonzero"/></g></g></svg>