<svg version="1.2" xmlns="http://www.w3.org/2000/svg" viewBox="0 0 256 256" width="40" height="40">
	<title>startpage-svg</title>
	<style>
		.s0 { fill: #3f6e83 } 
	</style>
	<g id="Layer">
		<path id="Layer" fill-rule="evenodd" class="s0" d="m39.1 144.5c-30.6-30.5-30.6-80.3 0-110.9 30.6-30.6 80.4-30.6 111 0 30.6 30.6 30.6 80.4 0 110.9-15.3 15.3-35.4 23-55.5 23-20.1 0-40.2-7.7-55.5-23zm11.7-99.3c-24.2 24.2-24.2 63.5 0 87.7 24.2 24.1 63.5 24.1 87.6 0 24.2-24.2 24.2-63.5 0-87.7-12-12-27.9-18.1-43.8-18.1-15.9 0-31.7 6.1-43.8 18.1z"/>
		<path id="Layer" class="s0" d="m198.6 227.5l-72.7-72.8c-3.2-3.2-3.2-8.4 0-11.7 3.2-3.2 8.4-3.2 11.6 0l72.8 72.8c3.1 3.1 8 3.1 11.1 0 1.4-1.5 2.3-3.4 2.3-5.5 0-2.1-0.9-4.1-2.3-5.5l-72.9-72.9c-3.2-3.2-3.2-8.5 0-11.7 3.2-3.2 8.4-3.2 11.6 0l72.9 72.9c4.6 4.6 7.1 10.7 7.1 17.2 0 6.5-2.5 12.6-7.1 17.2-4.7 4.7-10.9 7.1-17.2 7.1-6.2 0-12.4-2.4-17.2-7.1z"/>
		<path id="Layer" class="s0" d="m66.2 61.1c-2.5-3.8-1.5-8.9 2.3-11.4 13.6-9.1 30.6-10.5 45.5-3.9 4.1 1.8 6 6.7 4.2 10.9-1.9 4.1-6.8 6-10.9 4.2-9.7-4.4-20.8-3.4-29.7 2.5-1.4 0.9-3 1.4-4.6 1.4-2.6 0-5.2-1.3-6.8-3.7z"/>
		<path id="Layer" class="s0" d="m75.5 132.4c-18.4-8.2-29.6-27.2-27.9-47.3 0.3-4.5 4.3-7.9 8.9-7.5 4.5 0.4 7.9 4.3 7.5 8.9-1.1 13.1 6.2 25.4 18.2 30.8 8 3.5 17.1 3.5 25.1 0 4.1-1.9 9 0 10.9 4.2 1.8 4.1-0.1 9-4.2 10.8-6.1 2.8-12.7 4.1-19.2 4.1-6.6 0-13.2-1.3-19.3-4z"/>
	</g>
</svg>