<svg xmlns="http://www.w3.org/2000/svg" xmlns:xlink="http://www.w3.org/1999/xlink" width="50" zoomAndPan="magnify" viewBox="0 0 37.5 37.499999" height="50" preserveAspectRatio="xMidYMid meet" version="1.0"><defs><clipPath id="b53d8a5f8c"><path d="M 1 20 L 36 20 L 36 37.007812 L 1 37.007812 Z M 1 20 " clip-rule="nonzero"/></clipPath></defs><g clip-path="url(#b53d8a5f8c)"><path fill="#38b6ff" d="M 35.652344 37.253906 L 33.15625 37.253906 C 33.15625 29.296875 26.683594 22.824219 18.730469 22.824219 C 10.773438 22.824219 4.304688 29.296875 4.304688 37.253906 L 1.804688 37.253906 C 1.804688 27.921875 9.398438 20.328125 18.730469 20.328125 C 28.0625 20.328125 35.652344 27.921875 35.652344 37.253906 Z M 35.652344 37.253906 " fill-opacity="1" fill-rule="nonzero"/></g><path fill="#38b6ff" d="M 18.730469 19.339844 C 13.453125 19.339844 9.160156 15.050781 9.160156 9.773438 C 9.160156 4.5 13.453125 0.207031 18.730469 0.207031 C 24.003906 0.207031 28.296875 4.5 28.296875 9.773438 C 28.296875 15.050781 24.003906 19.339844 18.730469 19.339844 Z M 18.730469 2.703125 C 14.832031 2.703125 11.660156 5.875 11.660156 9.773438 C 11.660156 13.671875 14.832031 16.84375 18.730469 16.84375 C 22.628906 16.84375 25.800781 13.671875 25.800781 9.773438 C 25.800781 5.875 22.628906 2.703125 18.730469 2.703125 Z M 18.730469 2.703125 " fill-opacity="1" fill-rule="nonzero"/></svg>